# xmcd CD database file
#
# Track frame offsets:
#	150
#	14272
#	29964
#	44001
#	62805
#	83612
#	100453
#	114331
#	132857
#
# Disc length: 1999 seconds
#
# Revision: 0
# Processed by: cddbd v1.5.2PL0 Copyright (c) Steve Scherf et al.
# Submitted via: CDex 1.51
#
DISCID=7907cd09
DTITLE=Uncle Charlie's Nephew - Cod Liver Oil
DYEAR=2010
DGENRE=Country
TTITLE0=The Distant Kind
TTITLE1=Dr. Henry's Theory
TTITLE2=Why?
TTITLE3=One More Encore
TTITLE4=She's Mine
TTITLE5=Left Handed Jane
TTITLE6=When my Baby Smiles
TTITLE7=Bicycle Cruise
TTITLE8=If you Have Desire
EXTD=YEAR: 2010
EXTT0=
EXTT1=
EXTT2=
EXTT3=
EXTT4=
EXTT5=
EXTT6=
EXTT7=
EXTT8=
PLAYORDER=
